<?xml version="1.0" encoding="utf-8"?>
<!-- Generator: Adobe Illustrator 20.0.0, SVG Export Plug-In . SVG Version: 6.00 Build 0)  -->
<svg version="1.1" id="Layer_1" xmlns="http://www.w3.org/2000/svg" xmlns:xlink="http://www.w3.org/1999/xlink" x="0px" y="0px"
	 viewBox="0 0 100 100" style="enable-background:new 0 0 100 100;" xml:space="preserve">
<style type="text/css">
	.st0{fill:#E6E7E8;}
</style>
<g>
	<path class="st0" d="M7.8,62.4c-0.1-0.1-0.1-0.3-0.2-0.4c-0.3-0.8-0.7-1.7-1-2.6c-0.3-0.6-0.8-2.6-1-3.4c0,0,0,0,0,0
		c-1.5-6.6-1.3-11.8,0.1-18.3c1.7-6.7,4-11.6,7.8-17.3c0,0,0,0,0,0c0.7-1,1.4-1.9,2.2-2.9c0-0.1,0.5-0.6,0.6-0.7
		c0.1-0.1,0.2-0.2,0.3-0.3c2.5-2.8,5.3-4.7,8.5-6.6c3.8-2,7.1-3.2,11.4-3.7c2-0.2,3.7-0.2,5.7,0.1c2,0.3,3.4,0.8,5.1,1.8
		c1.7,1.1,2.8,2.2,4,3.9c1.2,1.9,1.7,3.6,2.2,5.8c0.3,2.2,0,3.9-0.7,6c-0.8,2.1-1.6,3.8-2.9,5.6c-1.2,1.6-2.4,3-4,4.1
		c-0.7,0.5-1.3,0.8-2.1,1.1c-0.3,0.1-2,0.3-1.9-0.1c0-0.1,1.3-0.7,1.5-0.8c0.3-0.1,1.3-1,1.6-1.3c1.2-1.3,2.1-2.6,3-4.2
		c0.9-1.7,1.5-3.3,2-5.2c0.3-1.5,0.5-2.9,0.1-4.4c-0.4-1.6-0.9-2.9-2-4.3c-0.9-1.1-1.6-1.7-2.9-2.4c-1.2-0.6-2.3-0.9-3.7-1
		c-1.5-0.1-2.8,0-4.4,0.2c-3.5,0.7-6.3,1.8-9.4,3.7c-2.7,1.7-4.7,3.3-6.8,5.7c-0.1,0.1-0.1,0.2-0.2,0.2c-0.1,0.1-0.4,0.5-0.5,0.6
		c-0.4,0.3-1.6,2.1-1.9,2.6c0,0,0,0,0,0c-3.4,5-5.5,9.4-7,15.3c-1.2,5.5-1.4,9.9-0.1,15.5c0,0,0,0,0,0c0.2,1,0.5,1.8,0.8,2.8
		c0,0.1,0.8,2.1,0.9,2.4c0.1,0.1,0.1,0.3,0.2,0.4c1.5,3.6,2.8,6.3,4.9,9.6c1.9,2.7,3.7,4.8,6.5,6.7c2.1,1.3,3.9,2,6.4,2.3
		c2.2,0.1,3.9-0.2,5.9-1c2.1-0.9,3.5-1.9,5-3.6c1.6-1.7,2.5-3.2,3.3-5.4c0.8-2.2,1-4,0.8-6.4c-0.1-0.9-2.2-7-2.1-7
		c1.5-0.1,3.8,5.4,4.1,6.7c0.6,2.7,0.5,4.8-0.1,7.5c-0.7,2.7-1.7,4.6-3.4,6.8c-1.8,2.2-3.5,3.6-6,4.9c-2.7,1.3-4.9,1.8-7.8,1.8
		c-3.4-0.1-5.8-0.9-8.7-2.5c-3.5-2.1-5.9-4.4-8.4-7.7C11.3,69.6,9.4,66.2,7.8,62.4"/>
	<path class="st0" d="M38.7,83.2c-2.6,1.2-4.8,1.6-7.7,1.6c-3.4-0.2-5.9-1-8.8-2.7c-3.6-2.2-5.9-4.7-8.4-8.1
		c-3.2-4.6-5.1-8.9-7-14.2c-2.4-7.8-2.3-14-0.3-21.9c2.4-7.9,5.6-13.6,10.8-20c1.6-1.9,3.2-3.2,5.2-4.7c-1.9,1.5-3.4,3-5,4.9
		c-0.1,0.1-0.3,0.4-0.4,0.5c-4.9,6.2-7.9,11.8-10.1,19.4c-1.9,7.7-1.9,13.8,0.5,21.4c1.9,5.2,3.8,9.4,6.9,13.9
		c2.4,3.3,4.6,5.6,8.1,7.8c2.8,1.6,5.1,2.4,8.3,2.6c2.9,0.1,5-0.4,7.6-1.6c2.5-1.3,4.2-2.6,5.9-4.7c1.7-2.1,2.7-4,3.5-6.7
		c0-0.1,0.1-0.5,0.1-0.6c0.5-2.4,0.3-4.5-0.4-6.9c-1.3-3.4-6.9-10-2.8-3.6c0.8,1.3,1.3,2.3,1.7,3.8c0.6,2.4,0.6,4.4,0,6.8
		c-0.6,2.5-1.5,4.3-3,6.3c-1.6,2-3.2,3.4-5.5,4.6c-2.4,1.2-4.4,1.7-7.2,1.7c-3.1-0.1-5.3-0.9-8-2.4c-3.4-2.1-5.6-4.4-8-7.6
		c-3.2-4.5-5-8.6-6.9-13.7c-2.4-7.5-2.3-13.5-0.5-21.1c0-0.9,2.3-6.5,2.8-7.6c-1,2.6-1.8,5-2.4,7.7c-1.5,7.5-1.3,13.4,1.3,20.6
		c2,4.9,3.9,8.9,7.1,13.2c2.3,2.9,4.3,5.1,7.5,7c2.4,1.4,4.4,2.1,7.2,2.2c2.4,0.1,4.2-0.3,6.5-1.3c0.1,0,0.6-0.3,0.6-0.3
		c1.8-1.2,2.9-2.3,4.2-4c1.3-1.9,2.1-3.6,2.6-5.8c0.3-1.4,0.2-2.8,0.2-2.6c0,0.9-0.1,1.7-0.3,2.6c-0.5,2.2-1.3,3.8-2.6,5.7
		c-1.4,1.9-2.8,3.1-4.8,4.2c-2.1,1.1-3.9,1.6-6.3,1.6c-2.8,0-4.9-0.7-7.3-2c-3.3-1.9-5.4-4.1-7.7-7C13,68,11,63.9,9.1,59
		c-2.6-7.3-2.6-13.2-1-20.7c0.9-3.5,1.9-6.4,3.4-9.7c2-3.8,4-6.8,6.7-10.1c2.7-3,5.3-5,8.8-6.9c3.5-1.8,6.6-2.9,10.6-3.4
		C39.3,8,40.7,8,42.4,8.3c1.5,0.3,2.7,0.6,4,1.4c1.3,0.8,2.1,1.6,2.9,2.8c1,1.5,1.4,2.9,1.8,4.6c0.2,1.6,0,3-0.5,4.5
		c-0.6,1.9-1.3,3.4-2.4,5.1c-1,1.5-1.9,2.7-3.3,3.9c-0.3,0.4-1,0.7-1.4,0.9c-0.1,0.1-0.6,0.2-0.8,0.2c0.3,0,0.5,0,0.8-0.1
		c0.3,0,1.2-0.7,1.5-0.9c1.4-1.1,2.4-2.3,3.4-3.8c1.1-1.7,1.9-3.2,2.6-5.2c0.5-1.6,0.8-3,0.6-4.7c-0.3-1.8-0.8-3.2-1.8-4.8
		c-0.9-1.3-1.7-2.2-3.1-3c-1.4-0.8-2.6-1.2-4.2-1.5c-1.8-0.3-3.2-0.3-5-0.1c-4.1,0.5-7.2,1.6-10.8,3.5c-0.4,0.1-1.9,1.1-2.3,1.4
		c0.8-0.5,1.5-1,2.3-1.4c0.4-0.4,2.9-1.5,3.5-1.8c2.5-0.9,4.7-1.5,7.3-1.8c1.8-0.2,3.3-0.2,5.1,0.1c1.6,0.3,2.8,0.7,4.2,1.5
		c0.2,0.1,0.8,0.6,1,0.7c0.9,0.7,1.5,1.3,2.2,2.3c1.1,1.6,1.6,3,2.1,4.9c0.4,1.8,0.2,3.3-0.2,5.1c0,0.4-0.8,2.6-0.9,3
		c0.4-1,0.8-1.9,1.1-3c0.5-1.8,0.7-3.3,0.4-5.2c-0.4-2-0.9-3.4-2-5.1c-0.4-0.9-2.2-2.5-3.1-3.1c-0.1,0-0.3-0.2-0.3-0.2
		c-1.5-0.9-2.8-1.3-4.5-1.7c-1.9-0.3-3.4-0.3-5.3-0.2c-4.2,0.5-7.5,1.6-11.2,3.4c-3.8,2-6.6,4-9.5,7.2C11.3,23.8,8,29.6,5.6,37.7
		c-2.1,8.1-2.2,14.5,0.3,22.5c1.9,5.4,3.8,9.8,7,14.5c2.6,3.6,5,6.1,8.7,8.5c3.1,1.9,5.8,2.8,9.4,3c3.3,0.1,5.7-0.5,8.7-1.8
		c2.8-1.4,4.7-2.9,6.7-5.3c1.4-1.8,2.4-3.3,3.2-5.4c-1.2,1.2-2.3,3.2-3.9,4.8c-2.1,2.1-3.9,3.4-6.6,4.7
		C39.1,83.1,38.8,83.2,38.7,83.2"/>
	<path class="st0" d="M90,74.5c0.1-0.1,0.2-0.3,0.2-0.4c0.5-0.8,0.9-1.5,1.4-2.3c0.4-0.6,1.3-2.4,1.6-3.1c0,0,0,0,0,0
		c2.6-6.2,3.3-11.3,3-17.9c-0.5-6.8-2-12-4.7-18.2c0,0,0,0,0,0c-0.5-1.1-1-2.1-1.6-3.2c0-0.1-0.4-0.7-0.5-0.8
		c-0.1-0.1-0.1-0.2-0.2-0.3c-1.9-3.1-4.4-5.5-7.2-7.9c-3.4-2.6-6.4-4.3-10.5-5.6c-1.9-0.5-3.5-0.8-5.5-0.9c-2,0-3.5,0.2-5.3,0.9
		c-1.9,0.8-3.1,1.6-4.5,3.1c-1.5,1.7-2.3,3.2-3.1,5.3c-0.7,2.1-0.7,3.8-0.4,6c0.4,2.2,0.9,3.9,1.9,6c0.9,1.8,1.8,3.3,3.2,4.7
		c0.6,0.6,1.1,1,1.9,1.4c0.2,0.2,1.9,0.6,1.9,0.2c0-0.1-1.1-0.9-1.4-1c-0.3-0.2-1.1-1.2-1.3-1.5c-1-1.5-1.6-2.9-2.2-4.6
		c-0.6-1.8-1-3.5-1.1-5.4c-0.1-1.5,0-2.9,0.6-4.4c0.7-1.5,1.4-2.7,2.6-3.8c1-0.9,1.9-1.4,3.2-1.8c1.3-0.4,2.4-0.5,3.8-0.4
		c1.5,0.1,2.8,0.4,4.2,0.9c3.4,1.3,5.8,2.8,8.5,5.2c2.4,2.2,4,4,5.7,6.7c0.1,0.1,0.1,0.2,0.2,0.3c0.1,0.1,0.3,0.5,0.4,0.6
		c0.3,0.4,1.2,2.3,1.4,2.9c0,0,0,0,0,0c2.5,5.5,3.7,10.1,4.2,16.1c0.3,5.6-0.3,10-2.5,15.2c0,0,0,0,0,0c-0.4,0.9-0.8,1.7-1.3,2.6
		c0,0.1-1.1,1.9-1.3,2.2c-0.1,0.1-0.2,0.2-0.2,0.4c-2,3.2-3.8,5.7-6.4,8.6c-2.3,2.4-4.4,4-7.5,5.4c-2.3,0.9-4.1,1.3-6.6,1.2
		c-2.2-0.2-3.8-0.8-5.6-2c-1.9-1.2-3.1-2.5-4.3-4.3c-1.2-1.9-1.9-3.6-2.3-5.8c-0.4-2.3-0.3-4.1,0.3-6.4c0.3-0.9,3.3-6.4,3.3-6.5
		c-1.4-0.4-4.6,4.7-5.2,5.8c-1,2.5-1.3,4.7-1.1,7.4c0.3,2.7,0.9,4.8,2.2,7.2c1.4,2.4,2.8,4.1,5,5.8c2.4,1.7,4.4,2.6,7.3,3.1
		c3.3,0.4,5.8,0.1,8.9-1c3.8-1.5,6.5-3.3,9.5-6.1C85.4,80.9,87.8,78,90,74.5"/>
	<path class="st0" d="M56.3,89.6c2.4,1.6,4.4,2.4,7.2,2.9c3.4,0.4,5.9,0,9.1-1.2c3.9-1.6,6.5-3.6,9.6-6.5c3.9-4,6.5-7.9,9.2-12.7
		c3.7-7.2,4.6-13.3,4-21.4c-1-8.2-3.1-14.3-7.2-21.4c-1.3-2.1-2.6-3.7-4.3-5.5c1.6,1.8,2.9,3.5,4,5.6c0.1,0.1,0.2,0.4,0.3,0.5
		c3.8,6.9,5.8,12.8,6.6,20.7c0.5,7.8-0.4,13.8-4.1,20.8c-2.7,4.7-5.3,8.5-9.1,12.4c-2.9,2.8-5.5,4.7-9.2,6.3c-3,1.1-5.4,1.5-8.6,1.1
		c-2.8-0.4-4.8-1.2-7.2-2.9c-2.2-1.6-3.6-3.3-5-5.6c-1.3-2.4-2-4.4-2.3-7.1c0-0.1,0-0.5,0-0.6c-0.1-2.4,0.5-4.5,1.5-6.6
		c1.8-3.1,8.5-8.6,3.4-3c-1,1.1-1.6,2.1-2.3,3.4c-1,2.3-1.3,4.2-1.2,6.6c0.2,2.5,0.7,4.4,1.9,6.7c1.2,2.3,2.5,3.8,4.6,5.4
		c2.2,1.6,4,2.4,6.7,2.9c3.1,0.4,5.4,0.1,8.3-1c3.7-1.4,6.2-3.3,9.1-6c3.8-3.8,6.4-7.6,9.1-12.3c3.6-6.9,4.6-12.8,4-20.6
		c0.2-0.9-1.1-6.8-1.4-7.9c0.6,2.7,0.9,5.2,1,7.9c0.2,7.6-1,13.3-4.8,19.9c-2.7,4.5-5.4,8.1-9.2,11.7c-2.7,2.5-5.1,4.2-8.5,5.6
		c-2.6,0.9-4.6,1.3-7.4,1c-2.4-0.4-4.1-1-6.1-2.4c0,0-0.6-0.4-0.6-0.4c-1.6-1.5-2.5-2.7-3.4-4.6c-1-2.1-1.4-3.8-1.5-6.1
		c0-1.4,0.2-2.8,0.2-2.6c-0.1,0.9-0.2,1.7-0.1,2.6c0.1,2.3,0.6,4,1.6,6c1.1,2.1,2.2,3.5,4,4.9c1.9,1.5,3.6,2.2,5.9,2.7
		c2.8,0.4,4.9,0.2,7.5-0.7c3.5-1.3,6-3,8.7-5.6c3.9-3.6,6.5-7.3,9.2-11.8c3.8-6.7,4.8-12.5,4.5-20.1c-0.2-3.6-0.8-6.6-1.7-10
		c-1.3-4-2.8-7.3-4.9-11c-2.1-3.4-4.3-5.8-7.4-8.3c-3.2-2.4-6-4-9.8-5.1c-1.7-0.5-3-0.7-4.8-0.7c-1.5,0-2.7,0.2-4.1,0.7
		c-1.4,0.6-2.3,1.2-3.3,2.2c-1.2,1.3-1.9,2.6-2.5,4.2c-0.5,1.5-0.5,2.9-0.3,4.5c0.3,2,0.7,3.6,1.5,5.4c0.7,1.6,1.4,3,2.5,4.3
		c0.3,0.4,0.9,0.8,1.2,1.1c0.1,0.1,0.5,0.3,0.7,0.3c-0.3,0-0.5-0.1-0.7-0.3c-0.3-0.1-1-0.9-1.3-1.1c-1.2-1.3-2-2.7-2.7-4.3
		c-0.8-1.8-1.3-3.5-1.6-5.5c-0.2-1.6-0.3-3.1,0.3-4.7c0.7-1.7,1.3-3,2.6-4.4c1.1-1.1,2.1-1.8,3.5-2.4c1.5-0.6,2.7-0.8,4.4-0.8
		c1.8,0,3.2,0.3,4.9,0.8c3.9,1.2,6.8,2.8,10,5.2c0.3,0.2,1.7,1.4,2.1,1.7c-0.7-0.6-1.3-1.2-2-1.8c-0.4-0.4-2.6-1.9-3.2-2.3
		c-2.3-1.3-4.3-2.3-6.9-3c-1.7-0.5-3.2-0.7-5-0.7c-1.6,0-2.9,0.2-4.4,0.8c-0.2,0-0.9,0.4-1.1,0.5c-1,0.5-1.7,1.1-2.6,1.9
		c-1.3,1.4-2.1,2.7-2.9,4.4c-0.7,1.6-0.8,3.2-0.7,5c-0.1,0.4,0.3,2.7,0.4,3.1c-0.3-1.1-0.4-2-0.6-3.1c-0.2-1.8-0.1-3.4,0.5-5.1
		c0.7-1.8,1.5-3.2,2.8-4.7c0.5-0.8,2.6-2.1,3.5-2.5c0.1,0,0.3-0.1,0.3-0.1c1.6-0.6,2.9-0.8,4.6-0.9c1.9,0,3.4,0.2,5.2,0.7
		c4,1.2,7,2.8,10.4,5.3c3.4,2.6,5.8,5.1,8,8.7c4.2,7.2,6.4,13.4,7.4,21.8c0.7,8.2-0.3,14.6-4.1,22c-2.8,4.9-5.4,8.9-9.3,13
		c-3.1,3-5.9,5.1-9.9,6.8c-3.4,1.3-6.1,1.7-9.7,1.3c-3.2-0.5-5.5-1.4-8.2-3.3c-2.5-1.9-4.1-3.7-5.7-6.4c-1.1-2-1.7-3.7-2.2-5.9
		c0.9,1.4,1.7,3.5,3,5.4c1.7,2.4,3.3,4,5.7,5.7C56,89.4,56.2,89.6,56.3,89.6"/>
</g>
</svg>
